# File created by Blade
# Date/Time:  Thu Jan 22 16:25:48 2015
# Frame Rate: 120.000 fps
#------------------------------------------------------
:FULLY-SPECIFIED
:DEGREES
887
root 3.186136 39.121240 9.172415 48.218215 32.054551 42.386134
RightUpLeg -14.920221 -18.646354 -27.559988
RightLeg -10.894476 -0.000000 0.000000
RightFoot -7.728022 -23.402463 17.168902
RightToeBase 16.695136 -0.000000 -0.000000
LeftUpLeg -2.619876 -6.748197 5.019607
LeftLeg 113.200513 -0.000000 -0.000000
LeftFoot 12.726554 17.390155 -26.458063
LeftToeBase 2.346999 -0.000000 -0.000000
Spine 15.706883 -5.274776 -3.695789
RightShoulder -1.046949 -16.589979 -26.614168
RightArm 37.274060 -13.132129 52.412192
RightForeArm 7.241907 0.000000 39.125600
RightHand 5.757913 -0.000000 -4.925085
RightHandThumb1 -24.326973 -0.000000 -32.862282
LeftShoulder -31.649999 37.467419 -14.642534
LeftArm 30.577279 -5.243469 -82.925156
LeftForeArm 38.428516 -0.000000 14.302069
LeftHand -18.737681 -0.000000 -2.114139
LeftHandThumb1 -26.253704 0.000000 33.147579
Head -15.817537 -23.639350 -11.311945
888
root 3.194447 39.091172 9.224200 47.644323 32.209134 41.868711
RightUpLeg -14.697999 -18.406956 -27.103159
RightLeg -10.903064 -0.000000 0.000000
RightFoot -7.949444 -23.233900 17.341550
RightToeBase 16.955781 -0.000000 -0.000000
LeftUpLeg -2.867806 -6.104622 4.503887
LeftLeg 110.374315 -0.000000 -0.000000
LeftFoot 11.171917 18.819590 -27.002809
LeftToeBase 3.026720 -0.000000 -0.000000
Spine 15.716923 -5.309168 -3.525246
RightShoulder -1.010308 -16.947387 -26.055269
RightArm 37.304947 -14.240950 53.655884
RightForeArm 7.048659 0.000000 38.426852
RightHand 5.836625 -0.000000 -4.716084
RightHandThumb1 -24.326973 -0.000000 -32.862282
LeftShoulder -31.468241 37.345162 -14.393990
LeftArm 30.753853 -4.812051 -82.576789
LeftForeArm 38.194537 -0.000000 14.625268
LeftHand -18.522141 0.000000 -2.066025
LeftHandThumb1 -26.253704 0.000000 33.147579
Head -15.961673 -23.379058 -11.106425
889
root 3.206977 39.061690 9.275570 47.058083 32.339822 41.364630
RightUpLeg -14.444886 -18.161443 -26.680816
RightLeg -10.932666 -0.000000 0.000000
RightFoot -8.033482 -23.095636 17.330978
RightToeBase 17.010883 -0.000000 -0.000000
LeftUpLeg -3.040486 -5.481013 3.988249
LeftLeg 107.432994 -0.000000 -0.000000
LeftFoot 9.911806 19.955466 -26.826948
LeftToeBase 2.775152 -0.000000 -0.000000
Spine 15.739878 -5.345692 -3.362309
RightShoulder -0.984771 -17.293649 -25.510909
RightArm 37.233539 -15.301801 54.921329
RightForeArm 7.120837 -0.000000 37.777749
RightHand 5.732856 -0.000000 -4.799535
RightHandThumb1 -24.326973 -0.000000 -32.862282
LeftShoulder -31.272947 37.196384 -14.151693
LeftArm 30.919873 -4.411841 -82.208831
LeftForeArm 37.838488 -0.000000 14.956923
LeftHand -18.334925 -0.000000 -2.103693
LeftHandThumb1 -26.253704 0.000000 33.147579
Head -16.094875 -23.069840 -10.925715
890
root 3.211007 39.027689 9.327643 46.446013 32.482762 40.784754
RightUpLeg -14.222525 -17.835402 -26.199629
RightLeg -10.957164 -0.000000 0.000000
RightFoot -8.271417 -22.997990 17.516847
RightToeBase 17.230328 -0.000000 -0.000000
LeftUpLeg -3.204752 -4.850779 3.594282
LeftLeg 104.428891 -0.000000 -0.000000
LeftFoot 8.663709 20.894964 -26.594743
LeftToeBase 2.896839 -0.000000 -0.000000
Spine 15.764303 -5.349868 -3.154045
RightShoulder -1.041309 -17.636519 -24.958310
RightArm 37.155026 -16.298150 56.233190
RightForeArm 7.311644 -0.000000 37.064546
RightHand 5.727687 -0.000000 -4.994610
RightHandThumb1 -24.326973 -0.000000 -32.862282
LeftShoulder -31.063545 36.998254 -13.864418
LeftArm 31.052793 -4.087726 -81.891020
LeftForeArm 37.541739 -0.000000 15.304710
LeftHand -18.076987 0.000000 -2.422663
LeftHandThumb1 -26.253704 0.000000 33.147579
Head -16.266572 -22.819524 -10.646676
891
root 3.216840 38.991621 9.375945 45.861599 32.644744 40.213600
RightUpLeg -13.996862 -17.560063 -25.706807
RightLeg -11.020524 -0.000000 0.000000
RightFoot -8.384013 -22.868170 17.535470
RightToeBase 16.985242 -0.000000 -0.000000
LeftUpLeg -3.399601 -4.280266 3.218959
LeftLeg 101.364075 -0.000000 -0.000000
LeftFoot 7.554821 21.773658 -26.437935
LeftToeBase 2.867854 -0.000000 -0.000000
Spine 15.749341 -5.420589 -2.920020
RightShoulder -1.121121 -17.952333 -24.441213
RightArm 37.087720 -17.388731 57.410517
RightForeArm 7.882148 -0.000000 36.316158
RightHand 5.768399 -0.000000 -5.379721
RightHandThumb1 -24.326973 -0.000000 -32.862282
LeftShoulder -30.864600 36.880266 -13.620162
LeftArm 31.211201 -3.804410 -81.604576
LeftForeArm 37.064896 -0.000000 15.686890
LeftHand -17.828972 -0.000000 -2.759769
LeftHandThumb1 -26.253704 0.000000 33.147579
Head -16.446838 -22.501081 -10.393085
892
root 3.221043 38.958101 9.421648 45.292077 32.788493 39.638098
RightUpLeg -13.784635 -17.251800 -25.232881
RightLeg -11.083660 -0.000000 0.000000
RightFoot -8.532041 -22.782065 17.658897
RightToeBase 17.106822 -0.000000 -0.000000
LeftUpLeg -3.586012 -3.820938 2.831696
LeftLeg 98.265672 -0.000000 -0.000000
LeftFoot 6.408222 22.308667 -26.629136
LeftToeBase 2.795494 -0.000000 -0.000000
Spine 15.729737 -5.493233 -2.693904
RightShoulder -1.244832 -18.280757 -23.933196
RightArm 36.966913 -18.375684 58.652381
RightForeArm 8.562436 -0.000000 35.598830
RightHand 5.691370 -0.000000 -5.899205
RightHandThumb1 -24.326973 -0.000000 -32.862282
LeftShoulder -30.687948 36.794444 -13.388652
LeftArm 31.413884 -3.560747 -81.364049
LeftForeArm 36.594248 -0.000000 16.096579
LeftHand -17.586838 0.000000 -3.501400
LeftHandThumb1 -26.253704 0.000000 33.147579
Head -16.654623 -22.226115 -10.082265
893
root 3.220169 38.926825 9.461976 44.766269 32.937770 39.090054
RightUpLeg -13.612121 -17.044987 -24.742069
RightLeg -11.126082 -0.000000 0.000000
RightFoot -8.647205 -22.661989 17.764600
RightToeBase 17.560743 -0.000000 -0.000000
LeftUpLeg -3.787270 -3.505060 2.439092
LeftLeg 95.158891 -0.000000 -0.000000
LeftFoot 4.983030 22.556286 -27.242792
LeftToeBase 2.854275 -0.000000 -0.000000
Spine 15.709122 -5.671329 -2.498635
RightShoulder -1.371701 -18.523158 -23.454566
RightArm 36.821043 -19.387044 59.855274
RightForeArm 9.446495 -0.000000 34.823839
RightHand 5.854052 0.000000 -6.391517
RightHandThumb1 -24.326973 -0.000000 -32.862282
LeftShoulder -30.566619 36.651237 -13.165539
LeftArm 31.595817 -3.305370 -81.129589
LeftForeArm 35.897767 -0.000000 16.439162
LeftHand -17.411232 -0.000000 -3.678906
LeftHandThumb1 -26.253704 0.000000 33.147579
Head -16.908230 -21.928282 -9.736451
894
root 3.220016 38.897608 9.497736 44.273065 33.063397 38.547634
RightUpLeg -13.494274 -16.870093 -24.250143
RightLeg -11.144849 -0.000000 0.000000
RightFoot -8.756943 -22.518350 17.837639
RightToeBase 17.664821 -0.000000 -0.000000
LeftUpLeg -3.994012 -3.221044 2.026032
LeftLeg 92.011019 -0.000000 -0.000000
LeftFoot 3.669167 22.607208 -27.555753
LeftToeBase 2.591851 -0.000000 -0.000000
Spine 15.657860 -5.820464 -2.303935
RightShoulder -1.548192 -18.718553 -22.981077
RightArm 36.573691 -20.406548 61.024160
RightForeArm 10.516136 -0.000000 34.129346
RightHand 5.895841 0.000000 -7.027307
RightHandThumb1 -24.326973 -0.000000 -32.862282
LeftShoulder -30.331642 36.523404 -12.872948
LeftArm 31.696849 -3.046625 -80.906623
LeftForeArm 35.180698 0.000000 16.858589
LeftHand -17.314555 0.000000 -4.318532
LeftHandThumb1 -26.253704 0.000000 33.147579
Head -17.186300 -21.710915 -9.357950
